<?xml version="1.0" encoding="iso-8859-1"?>
<!-- Generator: Adobe Illustrator 19.0.0, SVG Export Plug-In . SVG Version: 6.00 Build 0)  -->
<svg xmlns="http://www.w3.org/2000/svg" xmlns:xlink="http://www.w3.org/1999/xlink" version="1.1" id="Layer_1" x="0px" y="0px" viewBox="0 0 512 512" style="enable-background:new 0 0 512 512;" xml:space="preserve" width="512px" height="512px">
<g>
	<g>
		<path d="M399.996,362.672H58.668L26.668,512h405.328L399.996,362.672z M75.918,384h306.828l22.875,106.672H53.059L75.918,384z" fill="#f8e71c"/>
	</g>
</g>
<g>
	<g>
		<path d="M229.332,405.328c-35.344,0-64,14.328-64,32c0,17.688,28.656,32,64,32c35.352,0,64.008-14.312,64.008-32    C293.34,419.656,264.684,405.328,229.332,405.328z M260.676,442.797c-8.719,3.344-19.852,5.203-31.344,5.203    c-11.492,0-22.617-1.859-31.336-5.203c-5.086-1.969-8.242-4-9.984-5.469c1.742-1.453,4.898-3.5,9.984-5.469    c8.719-3.344,19.844-5.188,31.336-5.188s22.625,1.844,31.344,5.188c5.086,1.969,8.242,4.016,9.984,5.469    C268.918,438.797,265.762,440.828,260.676,442.797z" fill="#f8e71c"/>
	</g>
</g>
<g>
	<g>
		<path d="M482.215,48.375l-45.25-45.25C434.871,1.039,432.152,0,429.402,0c-2.719,0-5.438,1.039-7.531,3.125    c-4.156,4.164-4.156,10.922,0,15.086L236.879,203.203L229.332,256l52.789-7.547l185-184.992c2.094,2.086,4.812,3.125,7.547,3.125    s5.453-1.039,7.547-3.125C486.371,59.297,486.371,52.547,482.215,48.375z M272.074,228.344l-17.602,2.516l2.516-17.602    l63.93-63.922h30.172L272.074,228.344z M372.418,128h-30.172l94.719-94.703l15.078,15.078L372.418,128z" fill="#f8e71c"/>
	</g>
</g>
<g>
	<g>
		<path d="M229.332,256c-2.336,1.859-31.961,26.984-31.211,53.359c0.219,19.25,13.914,31.609,31.211,31.969    c17.305-0.359,31-12.719,31.219-31.969C261.293,282.984,231.668,257.859,229.332,256z M239.223,308.922l-0.008,0.188    c-0.039,3.922-1.398,10.469-9.883,10.875c-8.477-0.406-9.836-6.953-9.883-10.875v-0.188l-0.008-0.172    c-0.156-5.703,3.297-13.453,9.727-21.844c0.055-0.078,0.109-0.14,0.164-0.234c0.055,0.094,0.117,0.156,0.172,0.219    c6.43,8.391,9.883,16.156,9.719,21.859V308.922z" fill="#f8e71c"/>
	</g>
</g>
<g>
</g>
<g>
</g>
<g>
</g>
<g>
</g>
<g>
</g>
<g>
</g>
<g>
</g>
<g>
</g>
<g>
</g>
<g>
</g>
<g>
</g>
<g>
</g>
<g>
</g>
<g>
</g>
<g>
</g>
</svg>
