<svg height="464pt" viewBox="-88 0 464 464" width="464pt" xmlns="http://www.w3.org/2000/svg"><path d="m208.414062 416h-128c-27.824218.035156-51.417968 20.464844-55.429687 48h238.863281c-4.011718-27.535156-27.605468-47.964844-55.433594-48zm0 0"/><path d="m144.414062 328.152344-123.972656-86.417969-20.441406 14.265625 136.414062 95.070312v48.929688h16v-48.929688l136.417969-95.070312-20.441406-14.265625zm0 0"/><path d="m144.414062 280.152344-123.988281-86.398438-20.425781 14.246094 144.414062 100.648438 144.417969-100.648438-20.425781-14.246094zm0 0"/><path d="m288.832031 160-136.417969-95.070312v111.070312h-16v-111.070312l-136.414062 95.070312 144.414062 100.648438zm0 0"/><path d="m152.414062 63.175781v-63.175781h-16v63.175781l8-5.574219zm0 0"/></svg>