<svg height="512pt" viewBox="-96 0 512 512" width="512pt" xmlns="http://www.w3.org/2000/svg"><path d="m159.601562 238.867188c-18.066406 0-33.203124 14.628906-33.203124 33.199218v10.027344c10.148437 4.550781 21.378906 7.105469 33.203124 7.105469 11.820313 0 23.050782-2.554688 33.199219-7.105469v-10.027344c0-18.636718-15.199219-33.199218-33.199219-33.199218zm0 0"/><path d="m176.734375 191.734375c0-9.449219-7.6875-17.136719-17.132813-17.136719-9.449218 0-17.132812 7.6875-17.132812 17.136719 0 9.445313 7.683594 17.132813 17.132812 17.132813 9.445313 0 17.132813-7.6875 17.132813-17.132813zm0 0"/><path d="m215.832031 367.398438h-112.464843c-5.019532 0-9.101563 4.082031-9.101563 9.101562s4.082031 9.101562 9.101563 9.101562h112.46875c5.015624 0 9.097656-4.082031 9.097656-9.101562s-4.082032-9.101562-9.101563-9.101562zm0 0"/><path d="m256 0h-8.03125c-5.207031 0-9.101562 4.296875-9.101562 9.101562 0 21.558594-17.539063 39.097657-39.101563 39.097657h-80.332031c-21.558594 0-39.097656-17.539063-39.097656-39.097657 0-4.78125-3.871094-9.101562-9.101563-9.101562h-8.035156c-34.480469 0-63.199219 27.90625-63.199219 63.199219v385.601562c0 35.433594 28.851562 63.199219 63.199219 63.199219h192.800781c34.480469 0 63.199219-27.90625 63.199219-63.199219v-385.601562c0-35.433594-28.847657-63.199219-63.199219-63.199219zm-48.199219 482h-96.402343c-8.28125 0-15-6.714844-15-15s6.71875-15 15-15h96.402343c8.285157 0 15 6.714844 15 15s-6.714843 15-15 15zm8.03125-66.398438h-112.464843c-21.558594 0-39.101563-17.542968-39.101563-39.101562s17.542969-39.101562 39.101563-39.101562h112.46875c21.558593 0 39.097656 17.542968 39.097656 39.101562s-17.539063 39.101562-39.101563 39.101562zm-56.230469-96.402343c-61.425781 0-111.402343-49.972657-111.402343-111.398438s49.976562-111.402343 111.402343-111.402343c61.425782 0 111.398438 49.976562 111.398438 111.402343s-49.972656 111.398438-111.398438 111.398438zm0 0"/><path d="m159.601562 126.398438c-44.886718 0-81.402343 36.515624-81.402343 81.402343 0 20.007813 7.273437 38.34375 19.292969 52.535157 4.128906-22.136719 18.296874-34.566407 25.097656-39.472657-6.332032-8.023437-10.121094-18.140625-10.121094-29.132812 0-25.988281 21.140625-47.132813 47.132812-47.132813 25.988282 0 47.132813 21.144532 47.132813 47.132813 0 10.996093-3.792969 21.113281-10.128906 29.136719 6.847656 4.9375 20.972656 17.332031 25.101562 39.464843 12.023438-14.1875 19.292969-32.523437 19.292969-52.53125 0-44.886719-36.515625-81.402343-81.398438-81.402343zm0 0"/></svg>